<?xml version='1.0'?>
<!--
Bitly Generated QR Code
v6
41x41
-->
<svg width='784' height='784'
xmlns='http://www.w3.org/2000/svg'
xmlns:xlink='http://www.w3.org/1999/xlink'>
	<g id='background' style='fill:#ffffff' >
<rect x="0" y="0" width="784" height="784" />
</g>
<g id='pips' style='fill:#000000' >
<path d="M64,208L80,208L80,224L64,224L64,208M64,240L80,240L96,240L96,224L96,208L112,208L112,224L112,240L112,256L96,256L80,256L80,272L96,272L96,288L80,288L80,304L80,320L64,320L64,304L64,288L64,272L64,256L64,240M64,336L80,336L80,352L80,368L64,368L64,352L64,336M64,416L80,416L96,416L96,432L96,448L80,448L80,432L64,432L64,416M64,464L80,464L80,480L96,480L96,496L80,496L64,496L64,480L64,464M64,512L80,512L80,528L96,528L96,512L96,496L112,496L128,496L128,512L128,528L112,528L112,544L128,544L128,560L128,576L112,576L112,560L96,560L80,560L80,576L80,592L64,592L64,576L64,560L64,544L64,528L64,512M80,368L96,368L112,368L128,368L128,352L144,352L144,336L160,336L160,352L176,352L176,368L160,368L144,368L144,384L128,384L128,400L144,400L144,416L128,416L128,432L112,432L112,416L112,400L96,400L80,400L80,384L80,368M96,288L112,288L112,304L96,304L96,288M96,320L112,320L112,336L96,336L96,320M96,576L112,576L112,592L96,592L96,576M112,256L128,256L128,240L128,224L128,208L144,208L144,224L160,224L176,224L176,240L160,240L160,256L176,256L176,240L192,240L192,256L208,256L224,256L224,272L240,272L240,256L256,256L272,256L272,240L256,240L240,240L240,224L224,224L224,208L240,208L256,208L272,208L272,224L288,224L288,240L304,240L304,256L304,272L304,288L304,304L288,304L288,288L272,288L272,304L272,320L288,320L304,320L304,336L304,352L288,352L288,368L272,368L272,384L256,384L256,400L240,400L240,384L224,384L224,368L208,368L208,352L208,336L208,320L224,320L240,320L240,304L256,304L256,288L240,288L240,304L224,304L224,288L208,288L208,272L192,272L176,272L160,272L144,272L128,272L112,272L112,256M112,448L128,448L128,464L128,480L112,480L112,464L112,448M128,432L144,432L160,432L160,448L144,448L128,448L128,432M144,192L160,192L176,192L176,208L160,208L144,208L144,192M144,288L160,288L176,288L176,304L160,304L160,320L144,320L144,304L144,288M144,480L160,480L176,480L176,496L160,496L160,512L176,512L176,528L160,528L160,544L176,544L176,560L160,560L144,560L144,544L144,528L144,512L144,496L144,480M144,576L160,576L176,576L176,592L160,592L144,592L144,576M160,320L176,320L176,336L160,336L160,320M160,384L176,384L176,400L160,400L160,384M160,416L176,416L176,400L192,400L192,384L192,368L208,368L208,384L224,384L224,400L224,416L208,416L208,432L192,432L192,448L176,448L176,432L160,432L160,416M160,448L176,448L176,464L160,464L160,448M176,208L192,208L192,224L176,224L176,208M176,304L192,304L192,288L208,288L208,304L208,320L192,320L176,320L176,304M176,336L192,336L192,352L176,352L176,336M176,464L192,464L208,464L208,480L192,480L176,480L176,464M176,496L192,496L208,496L208,480L224,480L240,480L240,464L256,464L272,464L272,480L256,480L256,496L256,512L240,512L240,528L224,528L224,512L208,512L208,528L208,544L192,544L176,544L176,528L192,528L192,512L176,512L176,496M192,64L208,64L208,80L192,80L192,64M192,96L208,96L208,80L224,80L224,96L240,96L240,112L224,112L224,128L240,128L240,144L224,144L224,160L208,160L208,144L192,144L192,128L208,128L208,112L192,112L192,96M192,160L208,160L208,176L224,176L224,160L240,160L240,176L240,192L224,192L224,208L208,208L208,192L192,192L192,176L192,160M192,560L208,560L208,544L224,544L240,544L240,528L256,528L256,512L272,512L272,496L288,496L288,480L288,464L288,448L304,448L304,464L304,480L320,480L320,496L336,496L336,480L320,480L320,464L336,464L336,448L352,448L368,448L368,432L352,432L352,416L368,416L368,400L368,384L352,384L352,368L368,368L384,368L400,368L400,384L416,384L416,368L432,368L432,384L448,384L448,368L448,352L464,352L464,368L480,368L480,352L480,336L496,336L496,320L512,320L512,304L496,304L496,288L512,288L528,288L528,272L544,272L560,272L560,288L544,288L544,304L528,304L528,320L544,320L544,336L560,336L560,320L544,320L544,304L560,304L560,288L576,288L576,304L576,320L576,336L592,336L592,320L592,304L592,288L576,288L576,272L576,256L560,256L544,256L544,240L560,240L576,240L576,224L592,224L592,208L608,208L608,224L608,240L608,256L624,256L624,240L640,240L640,224L624,224L624,208L640,208L640,192L656,192L656,208L656,224L656,240L672,240L672,256L656,256L640,256L640,272L656,272L656,288L656,304L640,304L640,288L624,288L624,272L608,272L608,288L608,304L608,320L608,336L624,336L624,320L624,304L640,304L640,320L640,336L656,336L656,352L656,368L672,368L672,384L688,384L688,400L672,400L672,416L656,416L656,400L640,400L640,384L640,368L624,368L608,368L608,352L592,352L592,368L592,384L576,384L576,368L560,368L560,352L544,352L528,352L528,336L512,336L512,352L528,352L528,368L512,368L512,384L512,400L512,416L528,416L528,432L512,432L496,432L496,416L496,400L480,400L464,400L448,400L432,400L432,416L432,432L416,432L416,416L400,416L400,400L384,400L384,416L384,432L384,448L400,448L400,464L416,464L416,480L400,480L384,480L384,464L368,464L368,480L384,480L384,496L368,496L352,496L352,512L336,512L320,512L304,512L304,528L288,528L288,544L272,544L272,560L288,560L304,560L304,544L304,528L320,528L336,528L352,528L352,544L352,560L336,560L336,576L336,592L320,592L320,576L304,576L304,592L288,592L288,576L272,576L256,576L240,576L240,560L224,560L224,576L240,576L240,592L224,592L208,592L208,608L192,608L192,592L192,576L192,560M192,624L208,624L208,640L192,640L192,624M208,224L224,224L224,240L208,240L208,224M224,336L224,352L240,352L240,368L256,368L256,352L272,352L272,336L256,336L240,336L224,336M208,432L224,432L224,448L208,448L208,432M208,608L224,608L224,624L208,624L208,608M224,240L240,240L240,256L224,256L224,240M224,416L240,416L240,432L224,432L224,416M224,640L240,640L240,624L256,624L256,640L272,640L272,656L256,656L240,656L240,672L240,688L224,688L224,672L224,656L224,640M240,80L256,80L256,64L272,64L272,80L272,96L288,96L288,112L272,112L272,128L256,128L240,128L240,112L256,112L256,96L240,96L240,80M240,144L256,144L256,160L240,160L240,144M240,432L256,432L256,448L240,448L240,432M240,688L256,688L256,704L272,704L272,720L256,720L240,720L240,704L240,688M256,160L272,160L272,176L272,192L256,192L256,176L256,160M256,400L272,400L272,416L256,416L256,400M256,592L272,592L272,608L256,608L256,592M272,144L288,144L288,160L272,160L272,144M272,384L288,384L288,368L304,368L304,384L320,384L320,400L304,400L288,400L272,400L272,384M272,416L288,416L288,432L288,448L272,448L272,432L272,416M272,608L288,608L288,624L288,640L272,640L272,624L272,608M272,672L288,672L288,656L304,656L320,656L320,640L336,640L336,656L336,672L320,672L320,688L336,688L352,688L368,688L368,704L352,704L336,704L320,704L320,720L304,720L288,720L288,704L272,704L272,688L272,672M288,80L304,80L304,64L320,64L336,64L336,80L352,80L352,96L336,96L320,96L304,96L288,96L288,80M288,112L304,112L320,112L336,112L336,128L352,128L352,144L352,160L336,160L336,176L320,176L320,160L304,160L304,144L304,128L288,128L288,112M288,160L304,160L304,176L288,176L288,160M288,192L304,192L304,208L320,208L336,208L352,208L368,208L384,208L400,208L400,192L384,192L368,192L368,176L384,176L384,160L400,160L400,176L416,176L416,160L416,144L400,144L384,144L384,160L368,160L368,144L368,128L368,112L352,112L352,96L368,96L384,96L400,96L400,80L400,64L416,64L416,80L432,80L432,96L416,96L416,112L400,112L400,128L416,128L416,112L432,112L448,112L448,96L448,80L464,80L480,80L496,80L496,96L480,96L480,112L464,112L464,128L448,128L448,144L448,160L432,160L432,176L448,176L448,192L464,192L464,208L448,208L448,224L432,224L432,240L416,240L416,224L400,224L384,224L368,224L352,224L336,224L320,224L304,224L288,224L288,208L288,192M304,352L320,352L320,368L304,368L304,352M304,416L320,416L320,400L336,400L336,416L336,432L320,432L320,448L304,448L304,432L304,416M304,624L320,624L320,640L304,640L304,624M320,240L336,240L352,240L352,256L336,256L336,272L336,288L336,304L352,304L352,320L336,320L320,320L320,304L320,288L320,272L320,256L320,240M320,368L336,368L336,384L320,384L320,368M336,336L352,336L352,320L368,320L368,336L384,336L384,320L400,320L400,336L416,336L416,352L400,352L384,352L368,352L352,352L352,368L336,368L336,352L336,336M352,64L368,64L368,80L352,80L352,64M352,160L368,160L368,176L352,176L352,160M352,256L368,256L368,272L352,272L352,256M352,288L368,288L368,272L384,272L384,288L400,288L400,304L384,304L368,304L352,304L352,288M352,512L368,512L368,528L352,528L352,512M352,560L368,560L384,560L384,544L400,544L400,528L400,512L416,512L432,512L432,496L416,496L416,480L432,480L432,464L448,464L448,480L448,496L448,512L448,528L432,528L432,544L432,560L416,560L416,576L416,592L432,592L448,592L464,592L464,576L448,576L448,560L448,544L464,544L464,560L480,560L480,576L480,592L496,592L512,592L512,608L528,608L528,624L528,640L544,640L560,640L560,624L544,624L544,608L560,608L576,608L576,592L576,576L592,576L608,576L608,560L624,560L624,576L640,576L656,576L656,592L656,608L672,608L672,624L656,624L656,640L672,640L672,656L656,656L640,656L640,672L640,688L624,688L608,688L608,704L592,704L592,688L592,672L608,672L624,672L624,656L608,656L592,656L576,656L576,672L560,672L560,656L544,656L528,656L528,672L528,688L512,688L496,688L496,704L480,704L464,704L464,720L448,720L432,720L416,720L400,720L384,720L384,704L384,688L384,672L384,656L384,640L400,640L400,656L400,672L400,688L400,704L416,704L416,688L432,688L432,704L448,704L448,688L464,688L480,688L480,672L464,672L448,672L448,656L464,656L464,640L448,640L432,640L432,656L416,656L416,640L416,624L432,624L448,624L464,624L464,608L448,608L432,608L416,608L416,624L400,624L384,624L384,640L368,640L352,640L352,624L352,608L352,592L368,592L368,608L384,608L400,608L400,592L384,592L368,592L368,576L352,576L352,560M368,240L384,240L384,256L368,256L368,240M368,528L384,528L384,544L368,544L368,528M384,256L400,256L416,256L416,272L400,272L384,272L384,256M384,496L400,496L400,512L384,512L384,496M416,192L416,208L432,208L432,192L416,192M400,432L416,432L416,448L400,448L400,432M416,272L432,272L432,256L432,240L448,240L448,224L464,224L464,208L480,208L480,192L496,192L496,208L512,208L512,224L512,240L496,240L496,224L480,224L480,240L464,240L464,256L448,256L448,272L448,288L464,288L464,304L480,304L496,304L496,320L480,320L464,320L464,336L448,336L448,320L448,304L432,304L432,288L416,288L416,272M416,320L432,320L432,336L416,336L416,320M416,448L432,448L432,464L416,464L416,448M432,336L448,336L448,352L432,352L432,336M432,432L448,432L448,416L464,416L464,432L480,432L496,432L496,448L512,448L528,448L528,464L544,464L544,480L528,480L512,480L512,496L512,512L496,512L496,496L496,480L480,480L464,480L464,464L480,464L480,448L464,448L448,448L432,448L432,432M432,672L448,672L448,688L432,688L432,672M448,160L464,160L464,176L448,176L448,160M464,128L480,128L480,144L464,144L464,128M464,176L480,176L480,192L464,192L464,176M464,496L480,496L480,512L464,512L464,496M464,528L480,528L496,528L496,544L480,544L464,544L464,528M480,640L480,656L496,656L512,656L512,640L496,640L480,640M480,160L496,160L496,176L480,176L480,160M496,96L512,96L512,80L528,80L528,96L528,112L528,128L512,128L496,128L496,112L496,96M496,560L512,560L512,544L512,528L528,528L528,544L528,560L528,576L544,576L560,576L560,592L544,592L528,592L512,592L512,576L496,576L496,560M512,144L528,144L544,144L560,144L560,160L560,176L560,192L544,192L544,176L544,160L528,160L528,176L512,176L512,160L512,144M512,192L528,192L544,192L544,208L528,208L512,208L512,192M512,240L528,240L528,256L512,256L512,240M528,64L544,64L560,64L560,80L560,96L544,96L544,80L528,80L528,64M528,368L544,368L560,368L560,384L544,384L528,384L528,368M528,400L544,400L560,400L576,400L576,416L560,416L560,432L544,432L544,416L528,416L528,400M528,512L544,512L544,496L544,480L560,480L560,496L576,496L576,512L592,512L592,528L576,528L560,528L560,544L544,544L544,528L528,528L528,512M528,704L544,704L544,688L560,688L576,688L576,704L576,720L560,720L544,720L528,720L528,704M544,112L560,112L576,112L576,128L592,128L592,144L592,160L592,176L576,176L576,160L576,144L560,144L560,128L544,128L544,112M544,208L560,208L560,192L576,192L576,208L576,224L560,224L544,224L544,208M560,432L576,432L576,416L592,416L608,416L608,432L592,432L592,448L592,464L576,464L576,480L560,480L560,464L560,448L560,432M560,544L576,544L576,560L560,560L560,544M576,80L592,80L592,96L576,96L576,80M576,480L592,480L592,496L576,496L576,480M592,592L592,608L592,624L592,640L608,640L624,640L640,640L640,624L640,608L640,592L624,592L608,592L592,592M592,384L608,384L608,400L592,400L592,384M592,544L608,544L608,560L592,560L592,544M608,192L624,192L624,208L608,208L608,192M608,432L624,432L640,432L640,448L624,448L624,464L640,464L656,464L656,448L656,432L672,432L672,416L688,416L688,432L704,432L704,448L688,448L688,464L672,464L672,480L656,480L656,496L640,496L640,512L624,512L624,496L608,496L608,480L608,464L608,448L608,432M608,512L624,512L624,528L608,528L608,512M608,608L624,608L624,624L608,624L608,608M624,400L640,400L640,416L624,416L624,400M624,528L640,528L656,528L656,512L656,496L672,496L688,496L704,496L720,496L720,512L704,512L704,528L688,528L672,528L672,544L656,544L656,560L640,560L640,544L624,544L624,528M624,704L640,704L640,720L624,720L624,704M656,304L672,304L672,288L688,288L688,304L688,320L688,336L672,336L656,336L656,320L656,304M656,560L672,560L672,576L656,576L656,560M672,192L688,192L688,208L672,208L672,192M672,352L688,352L688,368L672,368L672,352M672,544L688,544L688,560L672,560L672,544M672,576L688,576L688,592L672,592L672,576M688,224L704,224L704,240L688,240L688,224M688,256L704,256L704,240L720,240L720,256L720,272L720,288L704,288L704,272L688,272L688,256M688,368L704,368L704,352L704,336L720,336L720,352L720,368L720,384L720,400L704,400L704,384L688,384L688,368M688,464L704,464L720,464L720,480L704,480L688,480L688,464M688,560L704,560L704,576L688,576L688,560M688,608L704,608L704,624L704,640L704,656L688,656L688,640L688,624L688,608M704,192L720,192L720,208L720,224L704,224L704,208L704,192M704,304L720,304L720,320L704,320L704,304M704,528L720,528L720,544L720,560L704,560L704,544L704,528M704,576L720,576L720,592L704,592L704,576M704,656L720,656L720,672L704,672L704,656Z" />
<path d="M4.7253,9.0689C6.179,9.0436 6.4149,7.6154 6.4149,6.769C6.4149,5.5163 5.775,5.0788 5,5C4.0425,5.4242 3.3403,6.146 3.2555,7.2606C3.2416,7.4443 3.237,7.6894 3.2516,7.9757C3.2906,8.7383 3.8493,9.0843 4.7253,9.0689 M 12.2447 10.8068 C 11.2047 10.8068 10.1118 10.1673 10.06 8.9707 C 8.8774 10.2223 7.0538 10.8186 4.7253 10.8186 C 2.3769 10.8186 1.396 9.2175 1.396 7.9703 C 1.4554 3.8126 1.3605 2.255 1.341 1.9353 C 1.3393 1.907 1.3381 1.8884 1.3377 1.8785 L 1.3373 1.8677 C 1.3313 1.7096 1.3224 1.4733 1.172 1.4572 C 1.0786 1.4472 1.0183 1.4757 0.911 1.6094 C 0.75 1.8233 0.425 1.908 0.2273 1.7937 C -0.0116 1.6555 -0.0562 1.3505 0.0647 1.0697 C 0.4002 0.3212 0.9379 -0.01 1.6625 0.0003 C 2.9146 0.0182 3.2738 0.8359 3.2738 1.8575 C 3.2738 1.8575 3.246 3.3292 3.246 4.1579 C 3.689 3.7969 4.3397 3.4098 5.4266 3.4098 C 7.6899 3.4098 9.1267 6.2118 7.6503 8.8925 C 9.5428 8.0197 9.9378 6.5164 10.0112 5.0238 L 10.0043 4.5203 C 10.0043 3.9552 10.3688 3.4767 10.9361 3.4767 C 11.5034 3.4767 11.8802 3.9877 11.86 4.5271 C 11.7919 6.3438 11.7644 7.5395 11.7644 8.1722 C 11.7644 8.5384 11.9642 9.0996 12.5555 9.0996 C 13.7134 9.0996 14.094 8.1922 14.1838 6.0595 C 14.1885 5.2642 14.1927 4.5997 14.1927 4.5997 C 13.6679 4.5997 13.4094 4.324 13.4094 3.9795 C 13.4094 3.635 13.683 3.3163 14.1321 3.3163 C 14.1321 3.3163 14.133 2.1182 14.133 1.622 C 14.133 1.0569 14.5715 0.5883 15.1388 0.5883 C 15.7062 0.5883 16.1567 1.0569 16.1567 1.622 C 16.1567 1.8095 16.1495 2.028 16.1416 2.2695 C 16.1315 2.5784 16.1201 2.9246 16.121 3.2909 L 16.2032 3.2905 H 16.2032 C 16.357 3.29 16.7051 3.2888 17.1681 3.2834 C 17.7198 3.2769 17.9445 3.5851 17.9445 3.9709 C 17.9445 4.3567 17.6475 4.626 17.2602 4.6276 C 16.9012 4.6291 16.1083 4.6247 16.1083 4.6247 C 16.0723 5.7674 16.0382 7.1451 16.0382 8.2475 C 16.0382 8.6451 16.3126 9.0995 16.9767 9.0995 C 18.3163 9.0995 18.8167 7.9092 18.9173 5.6498 C 18.9095 4.0766 18.8907 3.1653 18.8765 2.4785 V 2.4785 C 18.8666 1.9969 18.859 1.6258 18.859 1.2143 C 18.859 0.6493 19.3295 0.1442 19.8967 0.1442 C 20.4641 0.1442 20.8826 0.5977 20.8826 1.1627 C 20.8826 1.598 20.8651 2.1069 20.8413 2.8009 V 2.8009 V 2.801 C 20.801 3.9747 20.7425 5.6778 20.7195 8.4504 C 20.7165 8.8195 20.8967 9.0795 21.3748 9.0795 C 22.6524 9.0795 23.0066 7.6955 23.119 5.7625 C 23.1197 5.6695 23.1205 5.5785 23.1214 5.4891 L 23.1214 5.4887 C 23.1231 5.3054 23.1247 5.1289 23.1247 4.9561 C 23.1247 4.391 23.5011 3.9337 24.0686 3.9337 C 24.6359 3.9337 24.9694 4.4022 24.9694 4.9673 C 24.9694 5.3698 24.9562 5.7464 24.9427 6.1348 C 24.9307 6.4777 24.9184 6.8299 24.9146 7.2176 C 24.9047 8.2151 25.2455 9.0938 26.0756 9.0914 C 26.8726 9.0891 27.7479 8.7536 27.7691 7.045 C 27.7751 6.5701 27.7683 6.2053 27.7615 5.8371 V 5.837 V 5.8369 V 5.8368 C 27.7564 5.5642 27.7513 5.2897 27.7513 4.9673 C 27.7513 4.4022 28.1451 3.9337 28.7125 3.9337 C 29.2795 3.9337 29.6737 4.4022 29.6737 4.9673 C 29.6737 5.3051 29.6614 5.6415 29.6477 6.0145 V 6.0145 V 6.0146 V 6.0146 C 29.6307 6.4783 29.6117 6.9984 29.6117 7.6477 C 29.6117 7.6477 29.5769 10.0141 29.66 10.5378 C 29.9203 10.4512 30.2958 10.1968 30.6935 9.5802 C 30.9337 9.208 31.3928 9.1282 31.6758 9.293 C 32.0653 9.52 32.0514 9.9635 31.9058 10.2875 C 31.5298 11.1239 31.0409 11.6358 29.8047 12.0595 C 29.8086 13.4782 29.7098 15.5713 27.0868 15.9496 C 24.8405 16.2735 23.8244 14.9708 23.8211 13.8623 C 23.8157 12.112 25.5649 11.6022 28.0897 10.9665 L 28.0087 10.099 C 28.0087 10.099 27.4464 10.8364 26.0215 10.8008 C 24.9223 10.7733 24.1663 10.2543 23.7077 9.5213 C 23.1787 10.3901 22.3495 10.8105 21.1004 10.8105 C 20.2775 10.8105 19.4934 10.3758 19.1051 9.7457 C 18.5325 10.4308 17.7339 10.8015 16.6607 10.8015 C 15.7256 10.8015 15.0346 10.4786 14.6209 9.9746 C 14.087 10.5712 13.318 10.8068 12.2447 10.8068 Z M 28.2548 12.363 C 26.9786 12.6385 25.3798 13.0407 25.3983 13.8266 C 25.4158 14.5636 26.1767 14.6977 26.8111 14.5666 C 28.1286 14.2943 28.2816 13.5015 28.2548 12.363 Z M 11.9704 1.6249 C 11.9704 1.0544 11.5073 0.5932 10.9347 0.5932 C 10.3619 0.5932 9.8989 1.0544 9.8989 1.6249 C 9.8989 2.1953 10.3619 2.6566 10.9347 2.6566 C 11.5073 2.6566 11.9704 2.1953 11.9704 1.6249 Z" fill='#000000' transform='translate(648.000000, 684.000000) scale(2.250000, 2.250000)' />
</g>
<g id='corners-outer-1' style='fill:#000000' >
<path d="M64,64L80,64L96,64L112,64L128,64L144,64L160,64L176,64L176,80L176,96L176,112L176,128L176,144L176,160L176,176L160,176L144,176L128,176L112,176L96,176L80,176L64,176L64,160L64,144L64,128L64,112L64,96L64,80L64,64M80,80L80,96L80,112L80,128L80,144L80,160L96,160L112,160L128,160L144,160L160,160L160,144L160,128L160,112L160,96L160,80L144,80L128,80L112,80L96,80L80,80Z" />
</g>
<g id='corners-inner-1' style='fill:#000000' >
<path d="M96,96L112,96L128,96L144,96L144,112L144,128L144,144L128,144L112,144L96,144L96,128L96,112L96,96Z" />
</g>
<g id='corners-outer-2' style='fill:#000000' >
<path d="M608,64L624,64L640,64L656,64L672,64L688,64L704,64L720,64L720,80L720,96L720,112L720,128L720,144L720,160L720,176L704,176L688,176L672,176L656,176L640,176L624,176L608,176L608,160L608,144L608,128L608,112L608,96L608,80L608,64M624,80L624,96L624,112L624,128L624,144L624,160L640,160L656,160L672,160L688,160L704,160L704,144L704,128L704,112L704,96L704,80L688,80L672,80L656,80L640,80L624,80Z" />
</g>
<g id='corners-inner-2' style='fill:#000000' >
<path d="M640,96L656,96L672,96L688,96L688,112L688,128L688,144L672,144L656,144L640,144L640,128L640,112L640,96Z" />
</g>
<g id='corners-outer-3' style='fill:#000000' >
<path d="M64,608L80,608L96,608L112,608L128,608L144,608L160,608L176,608L176,624L176,640L176,656L176,672L176,688L176,704L176,720L160,720L144,720L128,720L112,720L96,720L80,720L64,720L64,704L64,688L64,672L64,656L64,640L64,624L64,608M80,624L80,640L80,656L80,672L80,688L80,704L96,704L112,704L128,704L144,704L160,704L160,688L160,672L160,656L160,640L160,624L144,624L128,624L112,624L96,624L80,624Z" />
</g>
<g id='corners-inner-3' style='fill:#000000' >
<path d="M96,640L112,640L128,640L144,640L144,656L144,672L144,688L128,688L112,688L96,688L96,672L96,656L96,640Z" />
</g>
</svg>
